<?xml version="1.0" encoding="UTF-8" standalone="no"?>
<!-- Generator: Adobe Illustrator 16.0.0, SVG Export Plug-In . SVG Version: 6.00 Build 0)  -->

<svg
   xmlns:dc="http://purl.org/dc/elements/1.1/"
   xmlns:cc="http://creativecommons.org/ns#"
   xmlns:rdf="http://www.w3.org/1999/02/22-rdf-syntax-ns#"
   xmlns:svg="http://www.w3.org/2000/svg"
   xmlns="http://www.w3.org/2000/svg"
   xmlns:sodipodi="http://sodipodi.sourceforge.net/DTD/sodipodi-0.dtd"
   xmlns:inkscape="http://www.inkscape.org/namespaces/inkscape"
   version="1.0"
   id="Calque_2"
   x="0px"
   y="0px"
   width="24px"
   height="24px"
   viewBox="0 0 24 24"
   enable-background="new 0 0 24 24"
   xml:space="preserve"
   inkscape:version="0.48.3.1 r9886"
   sodipodi:docname="kiosque.svg"><metadata
   id="metadata13"><rdf:RDF><cc:Work
       rdf:about=""><dc:format>image/svg+xml</dc:format><dc:type
         rdf:resource="http://purl.org/dc/dcmitype/StillImage" /></cc:Work></rdf:RDF></metadata><defs
   id="defs11" /><sodipodi:namedview
   pagecolor="#ffffff"
   bordercolor="#666666"
   borderopacity="1"
   objecttolerance="10"
   gridtolerance="10"
   guidetolerance="10"
   inkscape:pageopacity="0"
   inkscape:pageshadow="2"
   inkscape:window-width="1280"
   inkscape:window-height="938"
   id="namedview9"
   showgrid="false"
   inkscape:zoom="9.8333333"
   inkscape:cx="-5.7457627"
   inkscape:cy="12"
   inkscape:window-x="0"
   inkscape:window-y="31"
   inkscape:window-maximized="1"
   inkscape:current-layer="Calque_2" />
<g
   id="g3">
    <circle
   cx="12.5"
   cy="12.221"
   r="11"
   id="circle5"
   d="m 23.5,12.221 c 0,6.075132 -4.924868,11 -11,11 -6.0751322,0 -11,-4.924868 -11,-11 0,-6.0751325 4.9248678,-11.0000003 11,-11.0000003 6.075132,0 11,4.9248678 11,11.0000003 z"
   fill="#1B62B7" />
    
</g>
<g
   id="g3029"
   transform="matrix(0.91950727,0,0,0.91950727,9.9386159,-18.316805)"
   style="fill:#ffffff"><g
     id="g2536"
     transform="matrix(0.09614223,0,0,-0.09614223,2.1303952,30.797981)"
     style="fill:#ffffff"><path
       d="m 0,0 25.803,0 c 0,0 11.313,20.602 59.858,26.656 C 84.77,39.539 83.945,49.485 83.945,49.485 83.945,49.485 16.478,44.867 0,0"
       style="fill:#ffffff;fill-opacity:1;fill-rule:nonzero;stroke:none"
       id="path2538"
       inkscape:connector-curvature="0" /></g><g
     id="g2540"
     transform="matrix(0.09614223,0,0,-0.09614223,1.473841,34.591174)"
     style="fill:#ffffff"><path
       d="m 0,0 23.433,0 c 0,0 -3.005,-50.431 -86.883,-60.229 -1.023,13.015 -1.752,22.803 -1.752,22.803 0,0 56.176,5.226 65.202,37.426"
       style="fill:#ffffff;fill-opacity:1;fill-rule:nonzero;stroke:none"
       id="path2542"
       inkscape:connector-curvature="0" /></g></g></svg>
