<?xml version="1.0" encoding="UTF-8" standalone="no"?>
<!-- Generator: Adobe Illustrator 16.0.0, SVG Export Plug-In . SVG Version: 6.00 Build 0)  -->

<svg
   xmlns:dc="http://purl.org/dc/elements/1.1/"
   xmlns:cc="http://creativecommons.org/ns#"
   xmlns:rdf="http://www.w3.org/1999/02/22-rdf-syntax-ns#"
   xmlns:svg="http://www.w3.org/2000/svg"
   xmlns="http://www.w3.org/2000/svg"
   xmlns:sodipodi="http://sodipodi.sourceforge.net/DTD/sodipodi-0.dtd"
   xmlns:inkscape="http://www.inkscape.org/namespaces/inkscape"
   version="1.1"
   id="Calque_1"
   x="0px"
   y="0px"
   width="203.056"
   height="203.056"
   viewBox="0 0 203.056 203.056"
   enable-background="new 0 0 960 560"
   xml:space="preserve"
   inkscape:version="0.48.3.1 r9886"
   sodipodi:docname="citiz.svg"><metadata
   id="metadata15"><rdf:RDF><cc:Work
       rdf:about=""><dc:format>image/svg+xml</dc:format><dc:type
         rdf:resource="http://purl.org/dc/dcmitype/StillImage" /></cc:Work></rdf:RDF></metadata><defs
   id="defs13" /><sodipodi:namedview
   pagecolor="#ffffff"
   bordercolor="#666666"
   borderopacity="1"
   objecttolerance="10"
   gridtolerance="10"
   guidetolerance="10"
   inkscape:pageopacity="0"
   inkscape:pageshadow="2"
   inkscape:window-width="1280"
   inkscape:window-height="1000"
   id="namedview11"
   showgrid="false"
   fit-margin-top="0"
   fit-margin-left="0"
   fit-margin-right="0"
   fit-margin-bottom="0"
   inkscape:zoom="0.42142857"
   inkscape:cx="-369.64351"
   inkscape:cy="100.756"
   inkscape:window-x="1280"
   inkscape:window-y="0"
   inkscape:window-maximized="1"
   inkscape:current-layer="g3" />
<g
   id="g3"
   transform="translate(-379.813,-177.7)">
	<circle
   cx="481.341"
   cy="279.228"
   r="101.528"
   id="circle5"
   sodipodi:cx="481.341"
   sodipodi:cy="279.228"
   sodipodi:rx="101.528"
   sodipodi:ry="101.528"
   style="fill:#4ac2b6;fill-opacity:1"
   d="m 582.869,279.228 c 0,56.07236 -45.45563,101.528 -101.528,101.528 -56.07236,0 -101.528,-45.45564 -101.528,-101.528 0,-56.07237 45.45564,-101.528 101.528,-101.528 56.07237,0 101.528,45.45563 101.528,101.528 z" />
	
<path
   inkscape:connector-curvature="0"
   d="m 532.09294,270.5245 c 0.0353,4.46926 -10.25687,4.74066 -14.86841,4.76273 l -74.52026,0.40953 c -4.62407,0.0176 -12.21745,1.15071 -12.23908,-3.30973 l 3.75791,-27.52469 c -0.053,-8.52037 8.46829,-14.82535 16.76412,-14.86841 l 57.63097,-0.30097 c 12.80862,-0.0794 19.26364,11.61376 19.2857,16.07421 l 4.18905,24.75776 z m 20.46175,-15.79399 c -1.5644,-2.77133 -6.35688,-2.57717 -10.74441,0.46159 -1.58099,1.11207 -2.90814,2.4349 -3.86576,3.82718 l -3.89116,-19.36344 c -0.96971,-11.83 -17.28999,-17.65626 -21.64223,-17.64743 l -66.66862,0.38746 c -13.33808,0.0618 -18.9188,15.09674 -18.89726,19.32877 l -2.77964,16.47463 c -0.88348,-1.11092 -1.97383,-2.15458 -3.28818,-3.05924 -4.39576,-3.01626 -9.17932,-3.18951 -10.73939,-0.40952 -1.55141,2.76693 0.75462,7.46347 5.1283,10.47196 1.01277,0.6893 2.047,1.22795 3.04689,1.61629 -6.02051,2.64998 -11.5797,8.51145 -8.85611,21.63339 l 4.10697,23.40087 c 0.0176,2.78898 1.27128,5.25804 3.15464,6.76612 l 1.58575,1.37906 0.0176,8.10219 c 0.0265,4.63256 3.42605,8.36919 7.59339,8.34712 l 2.21945,-0.0176 c 4.18021,-0.009 7.54156,-3.80176 7.52012,-8.43422 l -0.0176,-6.37788 91.67678,-0.50837 0.0176,6.41203 c 0.0264,4.64138 3.42667,8.39124 7.61572,8.34826 l 2.21089,0 c 4.16689,-0.0176 7.52851,-3.79293 7.52851,-8.43431 l -0.0441,-6.96806 1.76623,-1.02602 c 1.32725,-0.98188 2.09069,-2.30577 2.54302,-3.50389 l 0.0353,-0.11563 0.37511,-1.32715 0.0794,-0.39716 0.1165,-1.49935 4.56848,-24.19847 c -0.009,-3.67158 0.75373,-16.35443 -9.83535,-21.43922 1.07783,-0.39628 2.18548,-0.97861 3.25456,-1.73208 4.38208,-3.03066 6.67902,-7.7271 5.10686,-10.49403"
   id="path24"
   style="fill:#ffffff;fill-opacity:1;fill-rule:nonzero;stroke:none" /></g>
</svg>