<?xml version="1.0" encoding="UTF-8" standalone="no"?>
<svg
   xmlns:dc="http://purl.org/dc/elements/1.1/"
   xmlns:cc="http://creativecommons.org/ns#"
   xmlns:rdf="http://www.w3.org/1999/02/22-rdf-syntax-ns#"
   xmlns:svg="http://www.w3.org/2000/svg"
   xmlns="http://www.w3.org/2000/svg"
   xmlns:sodipodi="http://sodipodi.sourceforge.net/DTD/sodipodi-0.dtd"
   xmlns:inkscape="http://www.inkscape.org/namespaces/inkscape"
   width="203.056"
   height="203.056"
   viewBox="0 -256 203.056 203.056"
   id="svg2"
   version="1.1"
   inkscape:version="0.48.3.1 r9886"
   sodipodi:docname="copie de tourisme.svg">
  <metadata
     id="metadata12">
    <rdf:RDF>
      <cc:Work
         rdf:about="">
        <dc:format>image/svg+xml</dc:format>
        <dc:type
           rdf:resource="http://purl.org/dc/dcmitype/StillImage" />
      </cc:Work>
    </rdf:RDF>
  </metadata>
  <defs
     id="defs10" />
  <sodipodi:namedview
     pagecolor="#ffffff"
     bordercolor="#666666"
     borderopacity="1"
     objecttolerance="10"
     gridtolerance="10"
     guidetolerance="10"
     inkscape:pageopacity="0"
     inkscape:pageshadow="2"
     inkscape:window-width="1280"
     inkscape:window-height="1000"
     id="namedview8"
     showgrid="false"
     fit-margin-top="0"
     fit-margin-left="0"
     fit-margin-right="0"
     fit-margin-bottom="0"
     inkscape:zoom="1.0992218"
     inkscape:cx="71.597201"
     inkscape:cy="75.218004"
     inkscape:window-x="1280"
     inkscape:window-y="0"
     inkscape:window-maximized="1"
     inkscape:current-layer="svg2" />
  <circle
     transform="translate(-379.813,-433.7)"
     cx="481.341"
     cy="279.228"
     r="101.528"
     id="circle5"
     sodipodi:cx="481.341"
     sodipodi:cy="279.228"
     sodipodi:rx="101.528"
     sodipodi:ry="101.528"
     style="fill:#006F58;fill-opacity:1"
     d="m 582.869,279.228 c 0,56.07236 -45.45563,101.528 -101.528,101.528 -56.07236,0 -101.528,-45.45564 -101.528,-101.528 0,-56.07237 45.45564,-101.528 101.528,-101.528 56.07237,0 101.528,45.45563 101.528,101.528 z" />
  <g
     transform="matrix(0.0789235,0,0,-0.0789235,25.76144,-103.96096)"
     id="g4"
     style="fill:#ffffff">
    <path
       style="fill:#ffffff"
       inkscape:connector-curvature="0"
       d="m 1111,540 v 4 l -24,320 q -1,13 -11,22.5 -10,9.5 -23,9.5 H 867 q -13,0 -23,-9.5 Q 834,877 833,864 L 809,544 v -4 q -1,-12 8,-20 9,-8 21,-8 h 244 q 12,0 21,8 9,8 8,20 z M 1870,73 q 0,-73 -46,-73 h -704 q 13,0 22,9.5 9,9.5 8,22.5 l -20,256 q -1,13 -11,22.5 -10,9.5 -23,9.5 H 824 q -13,0 -23,-9.5 Q 791,301 790,288 L 770,32 Q 769,19 778,9.5 787,0 800,0 H 96 q -46,0 -46,73 0,54 26,116 l 417,1044 q 8,19 26,33 18,14 38,14 h 339 q -13,0 -23,-9.5 -10,-9.5 -11,-22.5 l -15,-192 q -1,-14 8,-23 9,-9 22,-9 h 166 q 13,0 22,9 9,9 8,23 l -15,192 q -1,13 -11,22.5 -10,9.5 -23,9.5 h 339 q 20,0 38,-14 18,-14 26,-33 L 1844,189 q 26,-62 26,-116 z"
       id="path6" />
  </g>
</svg>
