<?xml version="1.0" encoding="UTF-8" standalone="no"?>
<!-- Generator: Adobe Illustrator 16.0.0, SVG Export Plug-In . SVG Version: 6.00 Build 0)  -->

<svg
   xmlns:dc="http://purl.org/dc/elements/1.1/"
   xmlns:cc="http://creativecommons.org/ns#"
   xmlns:rdf="http://www.w3.org/1999/02/22-rdf-syntax-ns#"
   xmlns:svg="http://www.w3.org/2000/svg"
   xmlns="http://www.w3.org/2000/svg"
   xmlns:sodipodi="http://sodipodi.sourceforge.net/DTD/sodipodi-0.dtd"
   xmlns:inkscape="http://www.inkscape.org/namespaces/inkscape"
   version="1.1"
   id="Calque_1"
   x="0px"
   y="0px"
   width="203.056"
   height="203.056"
   viewBox="0 0 203.056 203.056"
   enable-background="new 0 0 960 560"
   xml:space="preserve"
   inkscape:version="0.48.3.1 r9886"
   sodipodi:docname="parking.svg"><metadata
   id="metadata15"><rdf:RDF><cc:Work
       rdf:about=""><dc:format>image/svg+xml</dc:format><dc:type
         rdf:resource="http://purl.org/dc/dcmitype/StillImage" /></cc:Work></rdf:RDF></metadata><defs
   id="defs13" /><sodipodi:namedview
   pagecolor="#ffffff"
   bordercolor="#666666"
   borderopacity="1"
   objecttolerance="10"
   gridtolerance="10"
   guidetolerance="10"
   inkscape:pageopacity="0"
   inkscape:pageshadow="2"
   inkscape:window-width="653"
   inkscape:window-height="480"
   id="namedview11"
   showgrid="false"
   fit-margin-top="0"
   fit-margin-left="0"
   fit-margin-right="0"
   fit-margin-bottom="0"
   inkscape:zoom="0.42142857"
   inkscape:cx="100.187"
   inkscape:cy="100.756"
   inkscape:window-x="0"
   inkscape:window-y="31"
   inkscape:window-maximized="0"
   inkscape:current-layer="Calque_1" />
<g
   id="g3"
   transform="translate(-379.813,-177.7)">
	<circle
   cx="481.341"
   cy="279.228"
   r="101.528"
   id="circle5"
   sodipodi:cx="481.341"
   sodipodi:cy="279.228"
   sodipodi:rx="101.528"
   sodipodi:ry="101.528"
   style="fill:#2e318c"
   d="m 582.869,279.228 c 0,56.07236 -45.45563,101.528 -101.528,101.528 -56.07236,0 -101.528,-45.45564 -101.528,-101.528 0,-56.07237 45.45564,-101.528 101.528,-101.528 56.07237,0 101.528,45.45563 101.528,101.528 z" />
	<g
   id="g7">
		<path
   d="m 493.434,232.829 c 6.223,0 11.518,0.905 15.885,2.717 4.365,1.812 7.92,4.204 10.66,7.176 2.738,2.975 4.738,6.364 5.992,10.172 1.254,3.811 1.881,7.758 1.881,11.844 0,3.995 -0.627,7.921 -1.881,11.774 -1.254,3.855 -3.254,7.27 -5.992,10.241 -2.74,2.975 -6.295,5.365 -10.66,7.177 -4.367,1.812 -9.662,2.717 -15.885,2.717 h -22.99 v 35.671 H 448.567 V 232.83 h 44.867 z m -5.991,46.818 c 2.508,0 4.922,-0.186 7.246,-0.558 2.32,-0.37 4.365,-1.091 6.131,-2.16 1.762,-1.066 3.18,-2.577 4.248,-4.528 1.068,-1.951 1.604,-4.505 1.604,-7.664 0,-3.156 -0.535,-5.713 -1.604,-7.663 -1.068,-1.951 -2.486,-3.46 -4.248,-4.528 -1.766,-1.067 -3.811,-1.788 -6.131,-2.16 -2.324,-0.37 -4.738,-0.558 -7.246,-0.558 h -17 v 29.819 h 17 z"
   id="path9"
   inkscape:connector-curvature="0"
   style="fill:#ffffff" />
	</g>
</g>
</svg>