<?xml version="1.0" encoding="UTF-8" standalone="no"?>
<svg
   xmlns:dc="http://purl.org/dc/elements/1.1/"
   xmlns:cc="http://creativecommons.org/ns#"
   xmlns:rdf="http://www.w3.org/1999/02/22-rdf-syntax-ns#"
   xmlns:svg="http://www.w3.org/2000/svg"
   xmlns="http://www.w3.org/2000/svg"
   xmlns:sodipodi="http://sodipodi.sourceforge.net/DTD/sodipodi-0.dtd"
   xmlns:inkscape="http://www.inkscape.org/namespaces/inkscape"
   width="203.056"
   height="203.056"
   viewBox="0 -256 203.056 203.056"
   id="svg2"
   version="1.1"
   inkscape:version="0.48.3.1 r9886"
   sodipodi:docname="ticket.svg">
  <metadata
     id="metadata12">
    <rdf:RDF>
      <cc:Work
         rdf:about="">
        <dc:format>image/svg+xml</dc:format>
        <dc:type
           rdf:resource="http://purl.org/dc/dcmitype/StillImage" />
      </cc:Work>
    </rdf:RDF>
  </metadata>
  <defs
     id="defs10" />
  <sodipodi:namedview
     pagecolor="#ffffff"
     bordercolor="#666666"
     borderopacity="1"
     objecttolerance="10"
     gridtolerance="10"
     guidetolerance="10"
     inkscape:pageopacity="0"
     inkscape:pageshadow="2"
     inkscape:window-width="1280"
     inkscape:window-height="938"
     id="namedview8"
     showgrid="false"
     fit-margin-top="0"
     fit-margin-left="0"
     fit-margin-right="0"
     fit-margin-bottom="0"
     inkscape:zoom="1.0992218"
     inkscape:cx="-29.370364"
     inkscape:cy="75.218004"
     inkscape:window-x="0"
     inkscape:window-y="31"
     inkscape:window-maximized="1"
     inkscape:current-layer="svg2" />
  <circle
     transform="translate(-379.813,-433.7)"
     cx="481.341"
     cy="279.228"
     r="101.528"
     id="circle5"
     sodipodi:cx="481.341"
     sodipodi:cy="279.228"
     sodipodi:rx="101.528"
     sodipodi:ry="101.528"
     style="fill:#ff6600;fill-opacity:1"
     d="m 582.869,279.228 c 0,56.07236 -45.45563,101.528 -101.528,101.528 -56.07236,0 -101.528,-45.45564 -101.528,-101.528 0,-56.07237 45.45564,-101.528 101.528,-101.528 56.07237,0 101.528,45.45563 101.528,101.528 z" />
  <g
     transform="matrix(0.09507732,0,0,-0.09507732,16.291183,-93.670054)"
     id="g4"
     style="fill:#ffffff">
    <path
       style="fill:#ffffff"
       inkscape:connector-curvature="0"
       d="M 1024,1084 1340,768 768,196 452,512 z M 813,105 1431,723 q 19,19 19,45 0,26 -19,45 l -362,362 q -18,18 -45,18 -27,0 -45,-18 L 361,557 q -19,-19 -19,-45 0,-26 19,-45 L 723,105 q 18,-18 45,-18 27,0 45,18 z m 889,637 -907,-908 q -37,-37 -90.5,-37 -53.5,0 -90.5,37 L 488,-40 q 56,56 56,136 0,80 -56,136 -56,56 -136,56 -80,0 -136,-56 L 91,358 Q 54,395 54,448.5 54,502 91,539 l 907,906 q 37,37 90.5,37 53.5,0 90.5,-37 l 125,-125 q -56,-56 -56,-136 0,-80 56,-136 56,-56 136,-56 80,0 136,56 l 126,-125 q 37,-37 37,-90.5 0,-53.5 -37,-90.5 z"
       id="path6" />
  </g>
</svg>
