<?xml version="1.0" encoding="UTF-8" standalone="no"?>
<svg
   xmlns:dc="http://purl.org/dc/elements/1.1/"
   xmlns:cc="http://creativecommons.org/ns#"
   xmlns:rdf="http://www.w3.org/1999/02/22-rdf-syntax-ns#"
   xmlns:svg="http://www.w3.org/2000/svg"
   xmlns="http://www.w3.org/2000/svg"
   xmlns:sodipodi="http://sodipodi.sourceforge.net/DTD/sodipodi-0.dtd"
   xmlns:inkscape="http://www.inkscape.org/namespaces/inkscape"
   width="203.056"
   height="203.056"
   viewBox="0 -256 203.056 203.056"
   id="svg2"
   version="1.1"
   inkscape:version="0.48.3.1 r9886"
   sodipodi:docname="copie de spectacle.svg">
  <metadata
     id="metadata12">
    <rdf:RDF>
      <cc:Work
         rdf:about="">
        <dc:format>image/svg+xml</dc:format>
        <dc:type
           rdf:resource="http://purl.org/dc/dcmitype/StillImage" />
      </cc:Work>
    </rdf:RDF>
  </metadata>
  <defs
     id="defs10" />
  <sodipodi:namedview
     pagecolor="#ffffff"
     bordercolor="#666666"
     borderopacity="1"
     objecttolerance="10"
     gridtolerance="10"
     guidetolerance="10"
     inkscape:pageopacity="0"
     inkscape:pageshadow="2"
     inkscape:window-width="1280"
     inkscape:window-height="938"
     id="namedview8"
     showgrid="false"
     fit-margin-top="0"
     fit-margin-left="0"
     fit-margin-right="0"
     fit-margin-bottom="0"
     inkscape:zoom="1.0992218"
     inkscape:cx="-62.751009"
     inkscape:cy="75.218004"
     inkscape:window-x="0"
     inkscape:window-y="31"
     inkscape:window-maximized="1"
     inkscape:current-layer="svg2" />
  <circle
     transform="translate(-379.813,-433.7)"
     cx="481.341"
     cy="279.228"
     r="101.528"
     id="circle5"
     sodipodi:cx="481.341"
     sodipodi:cy="279.228"
     sodipodi:rx="101.528"
     sodipodi:ry="101.528"
     style="fill:#008000;fill-opacity:1"
     d="m 582.869,279.228 c 0,56.07236 -45.45563,101.528 -101.528,101.528 -56.07236,0 -101.528,-45.45564 -101.528,-101.528 0,-56.07237 45.45564,-101.528 101.528,-101.528 56.07237,0 101.528,45.45563 101.528,101.528 z" />
  <g
     transform="matrix(0.0950114,0,0,-0.0950114,34.95433,-87.894012)"
     id="g4"
     style="fill:#ffffff">
    <path
       style="fill:#ffffff"
       inkscape:connector-curvature="0"
       d="m 1376,1376 q 44,-52 12,-148 -32,-96 -108,-172 L 1119,895 1279,199 q 5,-19 -12,-33 L 1139,70 q -7,-6 -19,-6 -4,0 -7,1 -15,3 -21,16 L 813,589 554,330 607,136 q 5,-17 -8,-31 L 503,9 Q 494,0 480,0 h -2 Q 463,2 454,13 L 265,265 13,454 q -11,7 -13,23 -1,13 9,25 l 96,97 q 9,9 23,9 6,0 8,-1 L 330,554 589,813 81,1092 q -14,8 -17,24 -2,16 9,27 l 128,128 q 14,13 30,8 l 665,-159 160,160 q 76,76 172,108 96,32 148,-12 z"
       id="path6" />
  </g>
</svg>
