<?xml version="1.0" encoding="UTF-8" standalone="no"?>
<svg
   xmlns:dc="http://purl.org/dc/elements/1.1/"
   xmlns:cc="http://creativecommons.org/ns#"
   xmlns:rdf="http://www.w3.org/1999/02/22-rdf-syntax-ns#"
   xmlns:svg="http://www.w3.org/2000/svg"
   xmlns="http://www.w3.org/2000/svg"
   xmlns:sodipodi="http://sodipodi.sourceforge.net/DTD/sodipodi-0.dtd"
   xmlns:inkscape="http://www.inkscape.org/namespaces/inkscape"
   width="203.056"
   height="203.056"
   viewBox="0 -256 203.056 203.056"
   id="svg2"
   version="1.1"
   inkscape:version="0.48.3.1 r9886"
   sodipodi:docname="biblio.svg">
  <metadata
     id="metadata12">
    <rdf:RDF>
      <cc:Work
         rdf:about="">
        <dc:format>image/svg+xml</dc:format>
        <dc:type
           rdf:resource="http://purl.org/dc/dcmitype/StillImage" />
      </cc:Work>
    </rdf:RDF>
  </metadata>
  <defs
     id="defs10" />
  <sodipodi:namedview
     pagecolor="#ffffff"
     bordercolor="#666666"
     borderopacity="1"
     objecttolerance="10"
     gridtolerance="10"
     guidetolerance="10"
     inkscape:pageopacity="0"
     inkscape:pageshadow="2"
     inkscape:window-width="1280"
     inkscape:window-height="938"
     id="namedview8"
     showgrid="false"
     fit-margin-top="0"
     fit-margin-left="0"
     fit-margin-right="0"
     fit-margin-bottom="0"
     inkscape:zoom="1.0992218"
     inkscape:cx="-126.74688"
     inkscape:cy="38.828624"
     inkscape:window-x="0"
     inkscape:window-y="31"
     inkscape:window-maximized="1"
     inkscape:current-layer="svg2" />
  <circle
     transform="translate(-379.813,-433.7)"
     cx="481.341"
     cy="279.228"
     r="101.528"
     id="circle5"
     sodipodi:cx="481.341"
     sodipodi:cy="279.228"
     sodipodi:rx="101.528"
     sodipodi:ry="101.528"
     style="fill:#ffffff;fill-opacity:1"
     d="m 582.869,279.228 c 0,56.07236 -45.45563,101.528 -101.528,101.528 -56.07236,0 -101.528,-45.45564 -101.528,-101.528 0,-56.07237 45.45564,-101.528 101.528,-101.528 56.07237,0 101.528,45.45563 101.528,101.528 z" />
  <path
     inkscape:connector-curvature="0"
     style="fill:#000000;fill-rule:evenodd"
     id="letterw"
     d="m 178.10408,-201.3336 c 0,0.55225 -0.17511,1.05064 -0.51185,1.50862 -0.35022,0.4445 -0.71391,0.67349 -1.13147,0.67349 -3.35399,0.32328 -6.11531,1.40086 -8.24354,3.24623 -2.14171,1.8319 -4.3373,5.34753 -6.6137,10.51995 l -34.75221,78.31371 c -0.22898,0.72736 -0.86206,1.09105 -1.91271,1.09105 -0.82166,0 -1.45474,-0.36369 -1.91272,-1.09105 l -19.49086,-40.75977 -22.41384,40.75977 c -0.457973,0.72736 -1.091054,1.09105 -1.912715,1.09105 -0.996769,0 -1.656789,-0.36369 -1.98007,-1.09105 l -34.14606,-78.31371 c -2.128236,-4.86261 -4.377701,-8.25702 -6.748393,-10.1832 -2.357223,-1.92619 -5.657335,-3.125 -9.873398,-3.58298 -0.363686,0 -0.713902,-0.18858 -1.023708,-0.57921 -0.323276,-0.37715 -0.484915,-0.82166 -0.484915,-1.32004 0,-1.27963 0.363686,-1.91271 1.091058,-1.91271 3.044185,0 6.223069,0.13469 9.550121,0.40409 3.084595,0.28286 5.994082,0.41757 8.714991,0.41757 2.774788,0 6.04796,-0.13471 9.819517,-0.41757 3.946666,-0.2694 7.448826,-0.40409 10.493011,-0.40409 0.727372,0 1.091058,0.63308 1.091058,1.91271 0,1.26616 -0.228988,1.89925 -0.673493,1.89925 -3.044185,0.22898 -5.441817,1.01023 -7.192897,2.31681 -1.75108,1.32005 -2.626621,3.04419 -2.626621,5.18589 0,1.09106 0.363686,2.45151 1.091058,4.08136 l 28.219329,63.72586 16.015657,-30.25328 -14.924603,-31.29046 c -2.680498,-5.57651 -4.889554,-9.18643 -6.613689,-10.80281 -1.724146,-1.60292 -4.337294,-2.59969 -7.839453,-2.96337 -0.323277,0 -0.619614,-0.18858 -0.91595,-0.57921 -0.296337,-0.37715 -0.444505,-0.82166 -0.444505,-1.32004 0,-1.27963 0.309806,-1.91271 0.956359,-1.91271 3.044186,0 5.832445,0.13469 8.378241,0.40409 2.451511,0.28286 5.064663,0.41757 7.839455,0.41757 2.720905,0 5.60346,-0.13471 8.647634,-0.41757 3.13848,-0.2694 6.223081,-0.40409 9.267271,-0.40409 0.72737,0 1.09106,0.63308 1.09106,1.91271 0,1.26616 -0.21552,1.89925 -0.6735,1.89925 -6.088371,0.41756 -9.132561,2.14171 -9.132561,5.18589 0,1.36046 0.70044,3.47522 2.11477,6.33083 l 9.873401,20.04313 9.81952,-18.33247 c 1.36045,-2.5862 2.04742,-4.76832 2.04742,-6.54634 0,-4.17565 -3.04419,-6.39817 -9.13256,-6.68104 -0.55227,0 -0.82166,-0.63309 -0.82166,-1.89925 0,-0.45797 0.13469,-0.88901 0.4041,-1.2931 0.28286,-0.41757 0.55225,-0.61961 0.82166,-0.61961 2.1821,0 4.86261,0.13469 8.04149,0.40409 3.04419,0.28286 5.54958,0.41757 7.5027,0.41757 1.40087,0 3.47522,-0.12124 6.19614,-0.35022 3.44828,-0.30981 6.34429,-0.47144 8.6611,-0.47144 0.5388,0 0.8082,0.53878 0.8082,1.62985 0,1.45474 -0.49838,2.18211 -1.49515,2.18211 -3.54258,0.36368 -6.39819,1.34698 -8.55336,2.93643 -2.15517,1.58944 -4.84914,5.19935 -8.06844,10.82975 l -13.09268,24.20532 17.72631,36.11267 26.17192,-60.85679 c 0.90247,-2.22252 1.36044,-4.26994 1.36044,-6.12877 0,-4.45852 -3.04418,-6.81574 -9.13255,-7.09861 -0.55226,0 -0.82166,-0.63309 -0.82166,-1.89925 0,-1.27963 0.40409,-1.91271 1.22575,-1.91271 2.22253,0 4.86262,0.13469 7.9068,0.40409 2.8152,0.28286 5.1859,0.41757 7.08515,0.41757 2.007,0 4.32381,-0.13471 6.95043,-0.41757 2.73439,-0.2694 5.1859,-0.40409 7.36802,-0.40409 0.63308,0 0.95635,0.53878 0.95635,1.62985 z" />
</svg>
